<svg xmlns="http://www.w3.org/2000/svg" xmlns:xlink="http://www.w3.org/1999/xlink" width="419" zoomAndPan="magnify" viewBox="0 0 314.25 74.999997" height="100" preserveAspectRatio="xMidYMid meet" version="1.0"><defs><g/><clipPath id="e2023c8b78"><path d="M 43 23 L 60 23 L 60 40 L 43 40 Z M 43 23 " clip-rule="nonzero"/></clipPath><clipPath id="6130f8eb2b"><path d="M 60.730469 0.0898438 L 83.636719 38.699219 L 23.148438 74.585938 L 0.242188 35.976562 Z M 60.730469 0.0898438 " clip-rule="nonzero"/></clipPath><clipPath id="62b8b68c23"><path d="M 60.730469 0.0898438 L 83.636719 38.699219 L 23.148438 74.585938 L 0.242188 35.976562 Z M 60.730469 0.0898438 " clip-rule="nonzero"/></clipPath><clipPath id="a9b599afc9"><path d="M 43 23 L 61 23 L 61 40 L 43 40 Z M 43 23 " clip-rule="nonzero"/></clipPath><clipPath id="d72a99b0fb"><path d="M 60.730469 0.0898438 L 83.636719 38.699219 L 23.148438 74.585938 L 0.242188 35.976562 Z M 60.730469 0.0898438 " clip-rule="nonzero"/></clipPath><clipPath id="04ab385bc5"><path d="M 60.730469 0.0898438 L 83.636719 38.699219 L 23.148438 74.585938 L 0.242188 35.976562 Z M 60.730469 0.0898438 " clip-rule="nonzero"/></clipPath><clipPath id="e8dbeb2a79"><path d="M 14 17 L 72 17 L 72 65 L 14 65 Z M 14 17 " clip-rule="nonzero"/></clipPath><clipPath id="48f3519e4c"><path d="M 60.730469 0.0898438 L 83.636719 38.699219 L 23.148438 74.585938 L 0.242188 35.976562 Z M 60.730469 0.0898438 " clip-rule="nonzero"/></clipPath><clipPath id="27973b0d76"><path d="M 60.730469 0.0898438 L 83.636719 38.699219 L 23.148438 74.585938 L 0.242188 35.976562 Z M 60.730469 0.0898438 " clip-rule="nonzero"/></clipPath><clipPath id="21c96cadbe"><path d="M 7 10 L 79 10 L 79 72 L 7 72 Z M 7 10 " clip-rule="nonzero"/></clipPath><clipPath id="9209a752d8"><path d="M 60.730469 0.0898438 L 83.636719 38.699219 L 23.148438 74.585938 L 0.242188 35.976562 Z M 60.730469 0.0898438 " clip-rule="nonzero"/></clipPath><clipPath id="66c43c63ff"><path d="M 60.730469 0.0898438 L 83.636719 38.699219 L 23.148438 74.585938 L 0.242188 35.976562 Z M 60.730469 0.0898438 " clip-rule="nonzero"/></clipPath><clipPath id="e543c660d8"><path d="M 11 41 L 28 41 L 28 60 L 11 60 Z M 11 41 " clip-rule="nonzero"/></clipPath><clipPath id="643ccf11bf"><path d="M 60.730469 0.0898438 L 83.636719 38.699219 L 23.148438 74.585938 L 0.242188 35.976562 Z M 60.730469 0.0898438 " clip-rule="nonzero"/></clipPath><clipPath id="7eff44bb2b"><path d="M 60.730469 0.0898438 L 83.636719 38.699219 L 23.148438 74.585938 L 0.242188 35.976562 Z M 60.730469 0.0898438 " clip-rule="nonzero"/></clipPath></defs><g clip-path="url(#e2023c8b78)"><g clip-path="url(#6130f8eb2b)"><g clip-path="url(#62b8b68c23)"><path fill="#d9d9d9" d="M 55.765625 37.867188 C 55.3125 38.136719 54.839844 38.363281 54.34375 38.542969 C 53.851562 38.722656 53.34375 38.855469 52.828125 38.941406 C 52.3125 39.027344 51.796875 39.0625 51.277344 39.046875 C 50.761719 39.035156 50.25 38.972656 49.753906 38.859375 C 49.253906 38.746094 48.769531 38.589844 48.308594 38.382812 C 47.84375 38.175781 47.410156 37.929688 47.003906 37.636719 C 46.59375 37.34375 46.222656 37.015625 45.886719 36.648438 C 45.546875 36.28125 45.253906 35.886719 45 35.457031 C 44.746094 35.03125 44.539062 34.582031 44.378906 34.109375 C 44.21875 33.636719 44.109375 33.152344 44.046875 32.65625 C 43.988281 32.160156 43.976562 31.65625 44.019531 31.152344 C 44.058594 30.648438 44.152344 30.148438 44.292969 29.65625 C 44.433594 29.164062 44.621094 28.6875 44.859375 28.226562 C 45.09375 27.765625 45.375 27.328125 45.695312 26.917969 C 46.019531 26.507812 46.375 26.125 46.773438 25.777344 C 47.167969 25.433594 47.589844 25.125 48.042969 24.855469 C 48.496094 24.585938 48.972656 24.359375 49.464844 24.179688 C 49.960938 24 50.464844 23.867188 50.980469 23.78125 C 51.496094 23.699219 52.011719 23.660156 52.53125 23.675781 C 53.050781 23.6875 53.558594 23.753906 54.058594 23.863281 C 54.558594 23.976562 55.039062 24.132812 55.5 24.339844 C 55.964844 24.546875 56.398438 24.796875 56.808594 25.085938 C 57.214844 25.378906 57.585938 25.707031 57.925781 26.074219 C 58.261719 26.441406 58.554688 26.835938 58.808594 27.265625 C 59.0625 27.691406 59.269531 28.140625 59.429688 28.613281 C 59.589844 29.085938 59.699219 29.570312 59.761719 30.066406 C 59.820312 30.5625 59.832031 31.066406 59.789062 31.570312 C 59.75 32.074219 59.660156 32.574219 59.515625 33.066406 C 59.375 33.558594 59.1875 34.035156 58.949219 34.496094 C 58.714844 34.957031 58.4375 35.394531 58.113281 35.804688 C 57.792969 36.21875 57.433594 36.597656 57.039062 36.945312 C 56.644531 37.292969 56.21875 37.597656 55.765625 37.867188 Z M 55.765625 37.867188 " fill-opacity="1" fill-rule="nonzero"/></g></g></g><g clip-path="url(#a9b599afc9)"><g clip-path="url(#d72a99b0fb)"><g clip-path="url(#04ab385bc5)"><path stroke-linecap="round" transform="matrix(0.0726262, 0.122413, -0.122413, 0.0726262, 53.840164, -11.976245)" fill="none" stroke-linejoin="round" d="M 308.068252 167.043641 C 308.072471 170.74774 307.747047 174.415819 307.054375 178.057475 C 306.375706 181.67553 305.357795 185.219957 304.028647 188.643554 C 302.6995 192.06715 301.06352 195.308706 299.106705 198.391826 C 297.187496 201.465346 294.975457 204.333224 292.512597 206.924652 C 290.035735 209.539683 287.355258 211.90627 284.451966 213.949203 C 281.534671 216.015738 278.493376 217.753423 275.266872 219.157854 C 272.026366 220.585887 268.713467 221.651868 265.29057 222.365396 C 261.853671 223.102527 258.419591 223.458406 254.913118 223.452233 C 251.430249 223.460063 247.9738 223.100645 244.543774 222.373979 C 241.113747 221.647312 237.794953 220.571804 234.573387 219.171057 C 231.365825 217.746708 228.279094 216.011122 225.388406 213.945102 C 222.483715 211.902684 219.798669 209.543834 217.328864 206.929761 C 214.85906 204.315687 212.651702 201.474396 210.720793 198.382284 C 208.775882 195.313775 207.140622 192.046054 205.81061 188.64033 C 204.494601 185.211003 203.455834 181.690878 202.783523 178.037152 C 202.120811 174.421032 201.768543 170.765722 201.764324 167.061623 C 201.760106 163.357524 202.099533 159.665843 202.778202 156.047788 C 203.470874 152.406132 204.474782 148.885306 205.80393 145.46171 C 207.156679 142.052117 208.769056 138.796557 210.725872 135.713438 C 212.659084 132.616316 214.880723 129.786043 217.333982 127.157009 C 219.810845 124.541979 222.477319 122.198994 225.380611 120.156061 C 228.297905 118.089526 231.362803 116.365844 234.579707 114.923808 C 237.806211 113.519377 241.11911 112.453396 244.55601 111.716265 C 247.978906 111.002737 251.412986 110.646858 254.919458 110.653031 C 258.402328 110.645201 261.858776 111.004619 265.288803 111.731285 C 268.71883 112.457952 272.037624 113.53346 275.25919 114.934207 C 278.466752 116.358556 281.553483 118.094142 284.444171 120.160162 C 287.348862 122.20258 290.047911 124.537827 292.503713 127.175503 C 294.973517 129.789577 297.180875 132.630868 299.111783 135.72298 C 301.056695 138.791489 302.705958 142.035607 304.021967 145.464934 C 305.375581 148.884661 306.376743 152.414386 307.063057 156.044509 C 307.749371 159.674632 308.064034 163.339541 308.068252 167.043641 Z M 308.068252 167.043641 " stroke="#000000" stroke-width="9" stroke-opacity="1" stroke-miterlimit="4"/></g></g></g><g clip-path="url(#e8dbeb2a79)"><g clip-path="url(#48f3519e4c)"><g clip-path="url(#27973b0d76)"><path fill="#5271ff" d="M 61.054688 17.535156 C 64.589844 17.78125 68.28125 18.105469 71.457031 19.800781 C 71.441406 23.339844 69.992188 26.6875 68.542969 29.855469 C 64.835938 37.492188 58.980469 44.289062 51.332031 48.15625 C 51.015625 50.101562 50.761719 52.058594 50.410156 54 C 49.8125 56.835938 47.683594 59.257812 44.972656 60.269531 C 41.515625 61.488281 38.0625 62.734375 34.589844 63.914062 C 32.785156 64.492188 30.785156 62.777344 31.050781 60.914062 C 31.554688 57.777344 32.15625 54.660156 32.667969 51.523438 C 30.199219 50.84375 27.933594 49.339844 26.5 47.203125 C 24.808594 44.765625 24.371094 41.617188 25 38.75 C 22.957031 37.929688 20.75 37.355469 18.644531 36.617188 C 17.652344 36.246094 16.554688 36.101562 15.664062 35.492188 C 14.332031 34.523438 14.171875 32.351562 15.398438 31.226562 C 18.015625 28.765625 20.613281 26.277344 23.246094 23.832031 C 25.488281 21.789062 28.828125 21.074219 31.710938 22.027344 C 33.34375 22.597656 34.96875 23.199219 36.585938 23.808594 C 36.949219 24.03125 37.246094 23.632812 37.546875 23.480469 C 44.433594 18.925781 52.882812 17.191406 61.054688 17.535156 Z M 52.933594 25.136719 C 50.074219 24.777344 47.148438 26.761719 46.445312 29.5625 C 45.496094 32.648438 47.519531 36.230469 50.652344 37.011719 C 52.925781 37.703125 55.542969 36.839844 57.015625 34.996094 C 58.457031 33.25 58.78125 30.667969 57.800781 28.625 C 56.945312 26.707031 55.019531 25.339844 52.933594 25.136719 Z M 52.933594 25.136719 " fill-opacity="1" fill-rule="nonzero"/></g></g></g><g clip-path="url(#21c96cadbe)"><g clip-path="url(#9209a752d8)"><g clip-path="url(#66c43c63ff)"><path stroke-linecap="butt" transform="matrix(0.0726262, 0.122413, -0.122413, 0.0726262, 53.840164, -11.976245)" fill="none" stroke-linejoin="miter" d="M 204.177399 62.200009 C 218.337113 41.721944 233.528999 20.579841 255.156958 7.468336 C 276.484804 20.249506 291.517011 41.006641 305.463503 61.119637 C 338.317487 110.894359 358.395259 170.639797 354.343762 230.716495 C 364.963557 239.601814 375.878209 248.151502 386.348374 257.235241 C 401.341318 271.012634 408.343203 292.557881 404.738135 312.564801 C 399.709417 337.821958 394.859919 363.153534 389.539164 388.365071 C 386.562926 401.341873 369.031871 407.279013 358.725689 398.99459 C 341.57928 384.705422 324.900959 369.896207 307.782556 355.559834 C 294.825797 368.04008 277.61707 376.338353 259.567388 377.340802 C 238.776114 378.822781 218.184163 370.179805 203.114423 356.101567 C 190.834306 365.505032 179.453018 376.781993 167.444505 386.857161 C 161.645495 391.521905 156.837346 397.636093 149.962663 400.832986 C 139.334206 405.408681 125.637094 398.590689 123.236533 387.146629 C 117.749003 362.511039 112.026241 337.89544 106.689133 313.221453 C 102.382777 292.350028 110.036126 269.607339 126.129382 255.605442 C 135.42862 247.784045 144.888671 240.121877 154.367921 232.53492 C 157.015547 231.138061 155.672324 227.915961 155.830061 225.55245 C 152.996925 167.613702 172.806007 110.344157 204.177399 62.200009 Z M 220.995518 138.519521 C 208.573859 154.508265 210.075643 179.300081 224.478083 193.588714 C 239.721312 210.386526 268.618377 211.001228 284.569319 194.872638 C 296.896733 183.614526 301.062623 164.706182 295.201395 149.198604 C 289.818204 134.229922 275.379209 123.014902 259.52034 121.615534 C 244.864849 119.908984 229.700474 126.643947 220.995518 138.519521 Z M 220.995518 138.519521 " stroke="#000000" stroke-width="9" stroke-opacity="1" stroke-miterlimit="4"/></g></g></g><g clip-path="url(#e543c660d8)"><g clip-path="url(#643ccf11bf)"><g clip-path="url(#7eff44bb2b)"><path fill="#dc9517" d="M 18.316406 41.910156 C 19.191406 41.359375 20.457031 42.101562 20.433594 43.128906 C 20.679688 47.265625 23.015625 51.199219 26.527344 53.398438 C 27.402344 53.859375 27.507812 55.257812 26.65625 55.796875 C 24.773438 56.929688 22.882812 58.050781 20.988281 59.164062 C 20.074219 59.726562 18.765625 58.855469 18.917969 57.796875 C 19.074219 56.96875 19.324219 56.15625 19.515625 55.332031 C 17.40625 55.460938 15.304688 55.652344 13.195312 55.773438 C 12.1875 55.828125 11.4375 54.574219 11.957031 53.714844 C 13.074219 51.914062 14.261719 50.160156 15.375 48.355469 C 14.558594 48.140625 13.730469 47.96875 12.925781 47.707031 C 11.921875 47.339844 11.800781 45.769531 12.722656 45.234375 C 14.578125 44.113281 16.449219 43.015625 18.316406 41.910156 Z M 18.316406 41.910156 " fill-opacity="1" fill-rule="nonzero"/></g></g></g><g fill="#000000" fill-opacity="1"><g transform="translate(74.193047, 50.276066)"><g><path d="M 15.195312 0 L 6.960938 -16.160156 L 6.960938 0 L 2.449219 0 L 2.449219 -22.617188 L 8.433594 -22.617188 L 16.097656 -7.371094 L 16.097656 -22.617188 L 20.621094 -22.617188 L 20.621094 0 Z M 15.195312 0 "/></g></g></g><g fill="#000000" fill-opacity="1"><g transform="translate(97.246956, 50.276066)"><g><path d="M 17.941406 -8.53125 C 17.941406 -5.675781 17.285156 -3.457031 15.964844 -1.871094 C 14.648438 -0.285156 12.570312 0.507812 9.738281 0.507812 C 4.25 0.507812 1.503906 -2.503906 1.503906 -8.53125 C 1.503906 -11.429688 2.164062 -13.667969 3.480469 -15.253906 C 4.796875 -16.839844 6.886719 -17.632812 9.738281 -17.632812 C 12.570312 -17.632812 14.648438 -16.839844 15.964844 -15.253906 C 17.285156 -13.667969 17.941406 -11.429688 17.941406 -8.53125 Z M 13.578125 -8.53125 C 13.578125 -10.414062 13.285156 -11.789062 12.695312 -12.65625 C 12.109375 -13.523438 11.121094 -13.957031 9.738281 -13.957031 C 8.367188 -13.957031 7.375 -13.511719 6.765625 -12.625 C 6.15625 -11.734375 5.851562 -10.371094 5.851562 -8.53125 C 5.851562 -6.699219 6.152344 -5.351562 6.757812 -4.484375 C 7.363281 -3.621094 8.355469 -3.1875 9.738281 -3.1875 C 11.101562 -3.1875 12.082031 -3.613281 12.679688 -4.46875 C 13.28125 -5.324219 13.578125 -6.679688 13.578125 -8.53125 Z M 13.578125 -8.53125 "/></g></g></g><g fill="#000000" fill-opacity="1"><g transform="translate(116.690007, 50.276066)"><g><path d="M 15.457031 -4.886719 C 15.457031 -3.753906 15.171875 -2.785156 14.601562 -1.976562 C 14.027344 -1.171875 13.21875 -0.554688 12.164062 -0.128906 C 11.113281 0.292969 9.914062 0.507812 8.5625 0.507812 C 4.980469 0.507812 2.539062 -0.488281 1.242188 -2.484375 L 4.378906 -4.691406 C 4.890625 -3.992188 5.480469 -3.527344 6.152344 -3.292969 C 6.824219 -3.058594 7.539062 -2.941406 8.300781 -2.941406 C 10.304688 -2.941406 11.308594 -3.523438 11.308594 -4.691406 C 11.308594 -5.203125 11.023438 -5.597656 10.457031 -5.875 C 9.890625 -6.152344 9.003906 -6.4375 7.792969 -6.734375 C 5.519531 -7.234375 3.917969 -7.941406 2.992188 -8.855469 C 2.0625 -9.773438 1.601562 -10.960938 1.601562 -12.417969 C 1.601562 -13.933594 2.179688 -15.179688 3.339844 -16.160156 C 4.5 -17.140625 6.210938 -17.632812 8.464844 -17.632812 C 10 -17.632812 11.355469 -17.386719 12.523438 -16.898438 C 13.695312 -16.40625 14.597656 -15.671875 15.230469 -14.691406 L 12.074219 -12.453125 C 11.324219 -13.605469 10.097656 -14.183594 8.398438 -14.183594 C 7.527344 -14.183594 6.867188 -14.035156 6.421875 -13.734375 C 5.976562 -13.433594 5.753906 -13.050781 5.753906 -12.582031 C 5.753906 -12.136719 5.953125 -11.777344 6.355469 -11.511719 C 6.757812 -11.246094 7.554688 -10.964844 8.742188 -10.671875 C 10.691406 -10.191406 12.085938 -9.714844 12.917969 -9.242188 C 13.75 -8.765625 14.382812 -8.179688 14.8125 -7.476562 C 15.242188 -6.773438 15.457031 -5.910156 15.457031 -4.886719 Z M 15.457031 -4.886719 "/></g></g></g><g fill="#000000" fill-opacity="1"><g transform="translate(133.453511, 50.276066)"><g><path d="M 15.457031 -4.886719 C 15.457031 -3.753906 15.171875 -2.785156 14.601562 -1.976562 C 14.027344 -1.171875 13.21875 -0.554688 12.164062 -0.128906 C 11.113281 0.292969 9.914062 0.507812 8.5625 0.507812 C 4.980469 0.507812 2.539062 -0.488281 1.242188 -2.484375 L 4.378906 -4.691406 C 4.890625 -3.992188 5.480469 -3.527344 6.152344 -3.292969 C 6.824219 -3.058594 7.539062 -2.941406 8.300781 -2.941406 C 10.304688 -2.941406 11.308594 -3.523438 11.308594 -4.691406 C 11.308594 -5.203125 11.023438 -5.597656 10.457031 -5.875 C 9.890625 -6.152344 9.003906 -6.4375 7.792969 -6.734375 C 5.519531 -7.234375 3.917969 -7.941406 2.992188 -8.855469 C 2.0625 -9.773438 1.601562 -10.960938 1.601562 -12.417969 C 1.601562 -13.933594 2.179688 -15.179688 3.339844 -16.160156 C 4.5 -17.140625 6.210938 -17.632812 8.464844 -17.632812 C 10 -17.632812 11.355469 -17.386719 12.523438 -16.898438 C 13.695312 -16.40625 14.597656 -15.671875 15.230469 -14.691406 L 12.074219 -12.453125 C 11.324219 -13.605469 10.097656 -14.183594 8.398438 -14.183594 C 7.527344 -14.183594 6.867188 -14.035156 6.421875 -13.734375 C 5.976562 -13.433594 5.753906 -13.050781 5.753906 -12.582031 C 5.753906 -12.136719 5.953125 -11.777344 6.355469 -11.511719 C 6.757812 -11.246094 7.554688 -10.964844 8.742188 -10.671875 C 10.691406 -10.191406 12.085938 -9.714844 12.917969 -9.242188 C 13.75 -8.765625 14.382812 -8.179688 14.8125 -7.476562 C 15.242188 -6.773438 15.457031 -5.910156 15.457031 -4.886719 Z M 15.457031 -4.886719 "/></g></g></g><g fill="#000000" fill-opacity="1"><g transform="translate(150.217016, 50.276066)"><g><path d="M 17.941406 -8.53125 C 17.941406 -5.675781 17.285156 -3.457031 15.964844 -1.871094 C 14.648438 -0.285156 12.570312 0.507812 9.738281 0.507812 C 4.25 0.507812 1.503906 -2.503906 1.503906 -8.53125 C 1.503906 -11.429688 2.164062 -13.667969 3.480469 -15.253906 C 4.796875 -16.839844 6.886719 -17.632812 9.738281 -17.632812 C 12.570312 -17.632812 14.648438 -16.839844 15.964844 -15.253906 C 17.285156 -13.667969 17.941406 -11.429688 17.941406 -8.53125 Z M 13.578125 -8.53125 C 13.578125 -10.414062 13.285156 -11.789062 12.695312 -12.65625 C 12.109375 -13.523438 11.121094 -13.957031 9.738281 -13.957031 C 8.367188 -13.957031 7.375 -13.511719 6.765625 -12.625 C 6.15625 -11.734375 5.851562 -10.371094 5.851562 -8.53125 C 5.851562 -6.699219 6.152344 -5.351562 6.757812 -4.484375 C 7.363281 -3.621094 8.355469 -3.1875 9.738281 -3.1875 C 11.101562 -3.1875 12.082031 -3.613281 12.679688 -4.46875 C 13.28125 -5.324219 13.578125 -6.679688 13.578125 -8.53125 Z M 13.578125 -8.53125 "/></g></g></g><g fill="#000000" fill-opacity="1"><g transform="translate(169.660067, 50.276066)"><g/></g></g><g fill="#000000" fill-opacity="1"><g transform="translate(177.698706, 50.276066)"><g><path d="M 18.972656 -15.035156 C 18.972656 -12.308594 18.332031 -10.289062 17.050781 -8.972656 C 15.773438 -7.652344 13.695312 -6.992188 10.816406 -6.992188 L 7.058594 -6.992188 L 7.058594 0 L 2.449219 0 L 2.449219 -22.617188 L 10.949219 -22.617188 C 13.507812 -22.617188 15.484375 -22.019531 16.878906 -20.828125 C 18.273438 -19.632812 18.972656 -17.703125 18.972656 -15.035156 Z M 14.214844 -15 C 14.214844 -16.277344 13.867188 -17.195312 13.164062 -17.761719 C 12.460938 -18.328125 11.195312 -18.613281 9.363281 -18.613281 L 7.058594 -18.613281 L 7.058594 -11.015625 L 8.9375 -11.015625 C 10.628906 -11.015625 11.796875 -11.132812 12.445312 -11.363281 C 13.09375 -11.597656 13.550781 -11.996094 13.816406 -12.550781 C 14.082031 -13.105469 14.214844 -13.921875 14.214844 -15 Z M 14.214844 -15 "/></g></g></g><g fill="#000000" fill-opacity="1"><g transform="translate(197.942359, 50.276066)"><g><path d="M 12.484375 0 L 12.484375 -1.78125 C 10.816406 -0.257812 9.03125 0.507812 7.125 0.507812 C 5.230469 0.507812 3.796875 0.0078125 2.828125 -0.988281 C 1.859375 -1.984375 1.371094 -3.261719 1.371094 -4.820312 C 1.371094 -6.039062 1.621094 -7.046875 2.117188 -7.84375 C 2.613281 -8.640625 3.347656 -9.261719 4.320312 -9.714844 C 5.296875 -10.167969 6.699219 -10.484375 8.53125 -10.671875 L 12.140625 -11.015625 L 12.140625 -11.78125 C 12.140625 -12.742188 11.851562 -13.398438 11.273438 -13.75 C 10.699219 -14.105469 9.855469 -14.28125 8.742188 -14.28125 C 7.828125 -14.28125 7.039062 -14.128906 6.382812 -13.824219 C 5.722656 -13.519531 5.234375 -13.082031 4.917969 -12.515625 L 1.632812 -14.625 C 2.210938 -15.59375 3.117188 -16.339844 4.347656 -16.855469 C 5.578125 -17.375 7.066406 -17.632812 8.808594 -17.632812 C 11.476562 -17.632812 13.402344 -17.167969 14.585938 -16.234375 C 15.765625 -15.304688 16.355469 -13.777344 16.355469 -11.652344 L 16.355469 0 Z M 12.140625 -7.957031 L 10 -7.761719 C 8.488281 -7.632812 7.394531 -7.34375 6.722656 -6.894531 C 6.054688 -6.449219 5.71875 -5.777344 5.71875 -4.886719 C 5.71875 -4.101562 5.9375 -3.566406 6.371094 -3.277344 C 6.808594 -2.988281 7.386719 -2.84375 8.105469 -2.84375 C 8.617188 -2.84375 9.242188 -3.003906 9.976562 -3.324219 C 10.710938 -3.648438 11.433594 -4.101562 12.140625 -4.691406 Z M 12.140625 -7.957031 "/></g></g></g><g fill="#000000" fill-opacity="1"><g transform="translate(216.552142, 50.276066)"><g><path d="M 6.832031 -21.816406 C 6.832031 -21.019531 6.632812 -20.464844 6.242188 -20.148438 C 5.851562 -19.832031 5.25 -19.675781 4.445312 -19.675781 C 3.550781 -19.675781 2.945312 -19.859375 2.621094 -20.230469 C 2.300781 -20.601562 2.140625 -21.128906 2.140625 -21.816406 C 2.140625 -22.578125 2.316406 -23.125 2.664062 -23.457031 C 3.011719 -23.789062 3.605469 -23.957031 4.445312 -23.957031 C 5.292969 -23.957031 5.90625 -23.796875 6.273438 -23.472656 C 6.644531 -23.152344 6.832031 -22.601562 6.832031 -21.816406 Z M 2.371094 0 L 2.371094 -17.140625 L 6.585938 -17.140625 L 6.585938 0 Z M 2.371094 0 "/></g></g></g><g fill="#000000" fill-opacity="1"><g transform="translate(225.522093, 50.276066)"><g><path d="M 13.414062 0 L 13.414062 -9.445312 C 13.414062 -11.230469 13.253906 -12.425781 12.933594 -13.023438 C 12.613281 -13.621094 12.003906 -13.921875 11.113281 -13.921875 C 9.859375 -13.921875 8.351562 -13.09375 6.585938 -11.4375 L 6.585938 0 L 2.371094 0 L 2.371094 -17.140625 L 6.585938 -17.140625 L 6.585938 -14.917969 C 7.480469 -15.8125 8.433594 -16.488281 9.445312 -16.945312 C 10.457031 -17.402344 11.449219 -17.632812 12.417969 -17.632812 C 14.171875 -17.632812 15.480469 -17.152344 16.339844 -16.195312 C 17.203125 -15.234375 17.632812 -13.648438 17.632812 -11.4375 L 17.632812 0 Z M 13.414062 0 "/></g></g></g><g fill="#000000" fill-opacity="1"><g transform="translate(245.406294, 50.276066)"><g><path d="M 5.851562 -7.46875 C 5.925781 -5.941406 6.296875 -4.847656 6.960938 -4.183594 C 7.625 -3.519531 8.671875 -3.1875 10.097656 -3.1875 C 10.925781 -3.1875 11.652344 -3.289062 12.28125 -3.496094 C 12.90625 -3.703125 13.453125 -4.101562 13.921875 -4.691406 L 17.058594 -2.449219 C 16.375 -1.460938 15.484375 -0.71875 14.386719 -0.230469 C 13.292969 0.261719 11.796875 0.507812 9.902344 0.507812 C 7.082031 0.507812 4.976562 -0.234375 3.585938 -1.714844 C 2.199219 -3.199219 1.503906 -5.4375 1.503906 -8.433594 C 1.503906 -14.566406 4.25 -17.632812 9.738281 -17.632812 C 12.179688 -17.632812 14.039062 -16.941406 15.320312 -15.566406 C 16.601562 -14.1875 17.238281 -12.179688 17.238281 -9.542969 L 17.238281 -7.46875 Z M 13.054688 -10.375 C 13.054688 -12.980469 11.917969 -14.28125 9.640625 -14.28125 C 8.890625 -14.28125 8.273438 -14.152344 7.792969 -13.898438 C 7.316406 -13.640625 6.929688 -13.261719 6.644531 -12.753906 C 6.355469 -12.246094 6.128906 -11.453125 5.964844 -10.375 Z M 13.054688 -10.375 "/></g></g></g><g fill="#000000" fill-opacity="1"><g transform="translate(264.081431, 50.276066)"><g><path d="M 2.371094 -24.332031 L 6.585938 -24.332031 L 6.585938 0 L 2.371094 0 Z M 2.371094 -24.332031 "/></g></g></g><g fill="#5271ff" fill-opacity="1"><g transform="translate(104.488676, 60.395642)"><g><path d="M 4.464844 0.105469 C 3.628906 0.105469 2.921875 -0.0507812 2.34375 -0.363281 C 1.769531 -0.679688 1.332031 -1.125 1.03125 -1.707031 C 0.730469 -2.285156 0.578125 -2.972656 0.578125 -3.765625 C 0.578125 -4.367188 0.667969 -4.90625 0.84375 -5.386719 C 1.019531 -5.867188 1.273438 -6.277344 1.605469 -6.617188 C 1.9375 -6.957031 2.34375 -7.21875 2.824219 -7.398438 C 3.300781 -7.582031 3.84375 -7.671875 4.453125 -7.671875 C 4.855469 -7.671875 5.257812 -7.625 5.660156 -7.527344 C 6.066406 -7.433594 6.445312 -7.269531 6.804688 -7.039062 C 6.925781 -6.960938 7.007812 -6.863281 7.046875 -6.75 C 7.085938 -6.636719 7.089844 -6.519531 7.0625 -6.402344 C 7.03125 -6.285156 6.980469 -6.179688 6.902344 -6.097656 C 6.820312 -6.011719 6.722656 -5.957031 6.605469 -5.933594 C 6.488281 -5.914062 6.355469 -5.941406 6.214844 -6.019531 C 5.941406 -6.179688 5.667969 -6.292969 5.386719 -6.363281 C 5.109375 -6.4375 4.796875 -6.472656 4.453125 -6.472656 C 3.925781 -6.472656 3.476562 -6.367188 3.113281 -6.15625 C 2.746094 -5.945312 2.472656 -5.636719 2.292969 -5.238281 C 2.109375 -4.835938 2.019531 -4.347656 2.019531 -3.765625 C 2.019531 -2.886719 2.230469 -2.21875 2.652344 -1.761719 C 3.074219 -1.300781 3.699219 -1.074219 4.527344 -1.074219 C 4.816406 -1.074219 5.105469 -1.101562 5.398438 -1.160156 C 5.691406 -1.214844 5.976562 -1.296875 6.257812 -1.394531 L 5.988281 -0.785156 L 5.988281 -3.070312 L 4.808594 -3.070312 C 4.628906 -3.070312 4.492188 -3.117188 4.394531 -3.207031 C 4.296875 -3.300781 4.25 -3.425781 4.25 -3.585938 C 4.25 -3.75 4.296875 -3.875 4.394531 -3.960938 C 4.492188 -4.046875 4.628906 -4.089844 4.808594 -4.089844 L 6.578125 -4.089844 C 6.757812 -4.089844 6.894531 -4.039062 6.992188 -3.945312 C 7.089844 -3.847656 7.136719 -3.710938 7.136719 -3.53125 L 7.136719 -0.921875 C 7.136719 -0.765625 7.105469 -0.632812 7.046875 -0.527344 C 6.984375 -0.417969 6.886719 -0.339844 6.75 -0.289062 C 6.4375 -0.175781 6.074219 -0.0820312 5.667969 -0.00390625 C 5.257812 0.0703125 4.859375 0.105469 4.464844 0.105469 Z M 4.464844 0.105469 "/></g></g></g><g fill="#5271ff" fill-opacity="1"><g transform="translate(114.369547, 60.395642)"><g><path d="M 3.285156 0.105469 C 2.691406 0.105469 2.179688 -0.00390625 1.75 -0.226562 C 1.320312 -0.445312 0.988281 -0.761719 0.757812 -1.167969 C 0.523438 -1.578125 0.40625 -2.058594 0.40625 -2.617188 C 0.40625 -3.164062 0.519531 -3.636719 0.746094 -4.046875 C 0.972656 -4.453125 1.28125 -4.773438 1.679688 -5.007812 C 2.078125 -5.238281 2.527344 -5.355469 3.039062 -5.355469 C 3.410156 -5.355469 3.742188 -5.292969 4.039062 -5.171875 C 4.335938 -5.050781 4.589844 -4.875 4.800781 -4.648438 C 5.011719 -4.417969 5.175781 -4.140625 5.285156 -3.816406 C 5.394531 -3.488281 5.453125 -3.121094 5.453125 -2.714844 C 5.453125 -2.585938 5.40625 -2.488281 5.316406 -2.421875 C 5.226562 -2.351562 5.101562 -2.316406 4.9375 -2.316406 L 1.492188 -2.316406 L 1.492188 -3.089844 L 4.507812 -3.089844 L 4.335938 -2.929688 C 4.335938 -3.257812 4.289062 -3.535156 4.191406 -3.757812 C 4.09375 -3.976562 3.953125 -4.148438 3.773438 -4.265625 C 3.589844 -4.382812 3.363281 -4.441406 3.089844 -4.441406 C 2.789062 -4.441406 2.535156 -4.375 2.324219 -4.234375 C 2.113281 -4.09375 1.953125 -3.898438 1.839844 -3.644531 C 1.730469 -3.390625 1.675781 -3.085938 1.675781 -2.738281 L 1.675781 -2.660156 C 1.675781 -2.074219 1.8125 -1.636719 2.085938 -1.347656 C 2.363281 -1.058594 2.769531 -0.914062 3.304688 -0.914062 C 3.492188 -0.914062 3.699219 -0.933594 3.933594 -0.980469 C 4.164062 -1.027344 4.386719 -1.109375 4.59375 -1.222656 C 4.742188 -1.308594 4.875 -1.347656 4.992188 -1.335938 C 5.105469 -1.324219 5.195312 -1.285156 5.265625 -1.210938 C 5.332031 -1.140625 5.375 -1.054688 5.386719 -0.949219 C 5.402344 -0.847656 5.382812 -0.742188 5.328125 -0.632812 C 5.273438 -0.527344 5.183594 -0.433594 5.054688 -0.355469 C 4.804688 -0.195312 4.515625 -0.0820312 4.191406 -0.00390625 C 3.867188 0.0703125 3.5625 0.105469 3.285156 0.105469 Z M 3.285156 0.105469 "/></g></g></g><g fill="#5271ff" fill-opacity="1"><g transform="translate(122.169592, 60.395642)"><g><path d="M 2.617188 0.105469 C 2.3125 0.105469 1.984375 0.0742188 1.640625 0.0117188 C 1.296875 -0.0546875 0.992188 -0.164062 0.71875 -0.320312 C 0.605469 -0.394531 0.523438 -0.476562 0.476562 -0.574219 C 0.429688 -0.671875 0.414062 -0.765625 0.425781 -0.863281 C 0.433594 -0.960938 0.46875 -1.042969 0.53125 -1.117188 C 0.59375 -1.1875 0.671875 -1.234375 0.765625 -1.253906 C 0.863281 -1.277344 0.96875 -1.257812 1.082031 -1.203125 C 1.371094 -1.066406 1.636719 -0.972656 1.890625 -0.917969 C 2.140625 -0.863281 2.386719 -0.835938 2.628906 -0.835938 C 2.972656 -0.835938 3.226562 -0.894531 3.398438 -1.015625 C 3.566406 -1.132812 3.648438 -1.289062 3.648438 -1.480469 C 3.648438 -1.644531 3.59375 -1.773438 3.484375 -1.863281 C 3.371094 -1.953125 3.207031 -2.019531 2.984375 -2.058594 L 1.910156 -2.265625 C 1.464844 -2.351562 1.128906 -2.511719 0.894531 -2.753906 C 0.664062 -2.992188 0.546875 -3.300781 0.546875 -3.679688 C 0.546875 -4.023438 0.640625 -4.320312 0.832031 -4.570312 C 1.019531 -4.820312 1.285156 -5.015625 1.621094 -5.152344 C 1.957031 -5.289062 2.34375 -5.355469 2.78125 -5.355469 C 3.09375 -5.355469 3.390625 -5.320312 3.664062 -5.253906 C 3.941406 -5.183594 4.207031 -5.078125 4.464844 -4.9375 C 4.570312 -4.878906 4.644531 -4.804688 4.683594 -4.710938 C 4.722656 -4.617188 4.734375 -4.523438 4.710938 -4.425781 C 4.691406 -4.332031 4.648438 -4.246094 4.582031 -4.167969 C 4.519531 -4.09375 4.4375 -4.046875 4.339844 -4.03125 C 4.246094 -4.011719 4.136719 -4.03125 4.015625 -4.089844 C 3.792969 -4.203125 3.578125 -4.285156 3.375 -4.335938 C 3.171875 -4.386719 2.976562 -4.410156 2.789062 -4.410156 C 2.441406 -4.410156 2.179688 -4.351562 2.011719 -4.226562 C 1.84375 -4.105469 1.761719 -3.945312 1.761719 -3.746094 C 1.761719 -3.59375 1.808594 -3.46875 1.910156 -3.371094 C 2.011719 -3.269531 2.164062 -3.203125 2.371094 -3.164062 L 3.445312 -2.960938 C 3.910156 -2.875 4.261719 -2.71875 4.503906 -2.488281 C 4.742188 -2.261719 4.863281 -1.953125 4.863281 -1.566406 C 4.863281 -1.042969 4.65625 -0.636719 4.25 -0.339844 C 3.84375 -0.0429688 3.296875 0.105469 2.617188 0.105469 Z M 2.617188 0.105469 "/></g></g></g><g fill="#5271ff" fill-opacity="1"><g transform="translate(129.390433, 60.395642)"><g><path d="M 3.101562 0.105469 C 2.636719 0.105469 2.25 0.0273438 1.9375 -0.128906 C 1.625 -0.285156 1.394531 -0.515625 1.246094 -0.820312 C 1.09375 -1.125 1.019531 -1.503906 1.019531 -1.953125 L 1.019531 -4.238281 L 0.460938 -4.238281 C 0.289062 -4.238281 0.15625 -4.285156 0.0625 -4.375 C -0.0273438 -4.460938 -0.0742188 -4.585938 -0.0742188 -4.742188 C -0.0742188 -4.90625 -0.0273438 -5.035156 0.0625 -5.117188 C 0.15625 -5.203125 0.289062 -5.246094 0.460938 -5.246094 L 1.019531 -5.246094 L 1.019531 -6.222656 C 1.019531 -6.445312 1.078125 -6.613281 1.195312 -6.730469 C 1.316406 -6.84375 1.480469 -6.902344 1.695312 -6.902344 C 1.910156 -6.902344 2.074219 -6.84375 2.1875 -6.730469 C 2.304688 -6.613281 2.359375 -6.445312 2.359375 -6.222656 L 2.359375 -5.246094 L 3.5 -5.246094 C 3.671875 -5.246094 3.800781 -5.203125 3.894531 -5.117188 C 3.988281 -5.035156 4.035156 -4.90625 4.035156 -4.742188 C 4.035156 -4.585938 3.988281 -4.460938 3.894531 -4.375 C 3.800781 -4.285156 3.671875 -4.238281 3.5 -4.238281 L 2.359375 -4.238281 L 2.359375 -2.027344 C 2.359375 -1.683594 2.4375 -1.425781 2.585938 -1.253906 C 2.738281 -1.082031 2.980469 -1 3.316406 -1 C 3.4375 -1 3.546875 -1.007812 3.636719 -1.03125 C 3.730469 -1.050781 3.8125 -1.066406 3.886719 -1.074219 C 3.972656 -1.082031 4.042969 -1.054688 4.097656 -0.992188 C 4.15625 -0.933594 4.183594 -0.808594 4.183594 -0.621094 C 4.183594 -0.480469 4.164062 -0.351562 4.117188 -0.242188 C 4.070312 -0.128906 3.984375 -0.0546875 3.863281 -0.0117188 C 3.769531 0.0195312 3.648438 0.0429688 3.5 0.0703125 C 3.347656 0.09375 3.214844 0.105469 3.101562 0.105469 Z M 3.101562 0.105469 "/></g></g></g><g fill="#5271ff" fill-opacity="1"><g transform="translate(135.495784, 60.395642)"><g><path d="M 2.425781 0.105469 C 2.046875 0.105469 1.707031 0.0351562 1.410156 -0.113281 C 1.113281 -0.257812 0.882812 -0.457031 0.714844 -0.707031 C 0.546875 -0.957031 0.460938 -1.242188 0.460938 -1.554688 C 0.460938 -1.941406 0.5625 -2.25 0.761719 -2.472656 C 0.960938 -2.699219 1.289062 -2.863281 1.738281 -2.960938 C 2.1875 -3.0625 2.792969 -3.113281 3.550781 -3.113281 L 4.089844 -3.113281 L 4.089844 -2.339844 L 3.5625 -2.339844 C 3.121094 -2.339844 2.765625 -2.316406 2.5 -2.273438 C 2.234375 -2.230469 2.046875 -2.160156 1.9375 -2.054688 C 1.828125 -1.953125 1.769531 -1.804688 1.769531 -1.621094 C 1.769531 -1.382812 1.851562 -1.191406 2.019531 -1.039062 C 2.183594 -0.890625 2.410156 -0.816406 2.703125 -0.816406 C 2.941406 -0.816406 3.148438 -0.871094 3.332031 -0.980469 C 3.515625 -1.09375 3.660156 -1.246094 3.765625 -1.4375 C 3.875 -1.632812 3.929688 -1.851562 3.929688 -2.101562 L 3.929688 -3.335938 C 3.929688 -3.695312 3.847656 -3.953125 3.691406 -4.109375 C 3.535156 -4.269531 3.269531 -4.347656 2.898438 -4.347656 C 2.691406 -4.347656 2.464844 -4.320312 2.226562 -4.269531 C 1.988281 -4.222656 1.734375 -4.136719 1.46875 -4.015625 C 1.335938 -3.949219 1.214844 -3.929688 1.109375 -3.960938 C 1.007812 -3.988281 0.925781 -4.046875 0.871094 -4.136719 C 0.8125 -4.226562 0.785156 -4.324219 0.785156 -4.433594 C 0.785156 -4.539062 0.8125 -4.644531 0.871094 -4.75 C 0.925781 -4.851562 1.023438 -4.929688 1.160156 -4.980469 C 1.488281 -5.117188 1.804688 -5.210938 2.109375 -5.269531 C 2.414062 -5.328125 2.691406 -5.355469 2.941406 -5.355469 C 3.457031 -5.355469 3.878906 -5.277344 4.210938 -5.117188 C 4.546875 -4.960938 4.792969 -4.722656 4.957031 -4.40625 C 5.121094 -4.085938 5.203125 -3.675781 5.203125 -3.175781 L 5.203125 -0.601562 C 5.203125 -0.378906 5.152344 -0.210938 5.042969 -0.0898438 C 4.9375 0.0273438 4.78125 0.0859375 4.582031 0.0859375 C 4.382812 0.0859375 4.226562 0.0273438 4.117188 -0.0898438 C 4.003906 -0.210938 3.949219 -0.378906 3.949219 -0.601562 L 3.949219 -1.117188 L 4.035156 -1.117188 C 3.984375 -0.867188 3.886719 -0.648438 3.738281 -0.46875 C 3.59375 -0.285156 3.410156 -0.144531 3.1875 -0.0429688 C 2.964844 0.0585938 2.710938 0.105469 2.425781 0.105469 Z M 1.246094 -6.234375 C 1.136719 -6.242188 1.054688 -6.277344 1 -6.34375 C 0.941406 -6.40625 0.925781 -6.507812 0.957031 -6.644531 C 0.984375 -6.792969 1.027344 -6.941406 1.089844 -7.089844 C 1.148438 -7.234375 1.230469 -7.371094 1.332031 -7.492188 C 1.429688 -7.613281 1.550781 -7.710938 1.695312 -7.785156 C 1.839844 -7.859375 2.007812 -7.898438 2.199219 -7.898438 C 2.378906 -7.898438 2.535156 -7.863281 2.671875 -7.792969 C 2.808594 -7.71875 2.933594 -7.636719 3.046875 -7.542969 C 3.164062 -7.453125 3.277344 -7.371094 3.390625 -7.296875 C 3.503906 -7.226562 3.632812 -7.191406 3.765625 -7.191406 C 3.917969 -7.191406 4.046875 -7.242188 4.160156 -7.347656 C 4.269531 -7.449219 4.339844 -7.582031 4.367188 -7.738281 C 4.382812 -7.816406 4.417969 -7.878906 4.480469 -7.921875 C 4.542969 -7.964844 4.628906 -7.980469 4.742188 -7.972656 C 4.851562 -7.964844 4.933594 -7.929688 4.992188 -7.867188 C 5.046875 -7.800781 5.0625 -7.703125 5.035156 -7.566406 C 4.996094 -7.371094 4.929688 -7.179688 4.828125 -6.988281 C 4.730469 -6.792969 4.59375 -6.632812 4.425781 -6.503906 C 4.257812 -6.375 4.046875 -6.308594 3.789062 -6.308594 C 3.609375 -6.308594 3.453125 -6.347656 3.316406 -6.417969 C 3.179688 -6.488281 3.054688 -6.570312 2.933594 -6.664062 C 2.816406 -6.757812 2.699219 -6.839844 2.585938 -6.910156 C 2.472656 -6.984375 2.351562 -7.019531 2.222656 -7.019531 C 2.070312 -7.019531 1.941406 -6.96875 1.835938 -6.867188 C 1.726562 -6.769531 1.65625 -6.636719 1.621094 -6.472656 C 1.605469 -6.394531 1.570312 -6.332031 1.507812 -6.289062 C 1.445312 -6.246094 1.359375 -6.226562 1.246094 -6.234375 Z M 1.246094 -6.234375 "/></g></g></g><g fill="#5271ff" fill-opacity="1"><g transform="translate(143.349456, 60.395642)"><g><path d="M 3.089844 0.105469 C 2.546875 0.105469 2.074219 -0.00390625 1.675781 -0.226562 C 1.273438 -0.445312 0.960938 -0.765625 0.742188 -1.175781 C 0.519531 -1.585938 0.40625 -2.070312 0.40625 -2.628906 C 0.40625 -3.050781 0.46875 -3.429688 0.59375 -3.761719 C 0.722656 -4.09375 0.902344 -4.378906 1.136719 -4.621094 C 1.375 -4.859375 1.65625 -5.042969 1.984375 -5.167969 C 2.316406 -5.292969 2.683594 -5.355469 3.089844 -5.355469 C 3.632812 -5.355469 4.105469 -5.246094 4.507812 -5.023438 C 4.90625 -4.800781 5.21875 -4.484375 5.441406 -4.078125 C 5.664062 -3.671875 5.773438 -3.1875 5.773438 -2.628906 C 5.773438 -2.207031 5.710938 -1.828125 5.585938 -1.492188 C 5.460938 -1.15625 5.28125 -0.867188 5.042969 -0.628906 C 4.808594 -0.386719 4.523438 -0.207031 4.195312 -0.0820312 C 3.867188 0.0429688 3.5 0.105469 3.089844 0.105469 Z M 3.089844 -0.914062 C 3.355469 -0.914062 3.589844 -0.976562 3.789062 -1.105469 C 3.988281 -1.234375 4.144531 -1.425781 4.253906 -1.679688 C 4.367188 -1.933594 4.421875 -2.25 4.421875 -2.628906 C 4.421875 -3.203125 4.300781 -3.628906 4.058594 -3.910156 C 3.8125 -4.195312 3.492188 -4.335938 3.089844 -4.335938 C 2.824219 -4.335938 2.59375 -4.273438 2.394531 -4.148438 C 2.191406 -4.023438 2.039062 -3.832031 1.925781 -3.578125 C 1.816406 -3.324219 1.761719 -3.007812 1.761719 -2.628906 C 1.761719 -2.0625 1.882812 -1.636719 2.125 -1.347656 C 2.367188 -1.058594 2.691406 -0.914062 3.089844 -0.914062 Z M 3.089844 -0.914062 "/></g></g></g><g fill="#5271ff" fill-opacity="1"><g transform="translate(151.514179, 60.395642)"><g/></g></g><g fill="#5271ff" fill-opacity="1"><g transform="translate(156.407506, 60.395642)"><g><path d="M 2.617188 0.105469 C 2.3125 0.105469 1.984375 0.0742188 1.640625 0.0117188 C 1.296875 -0.0546875 0.992188 -0.164062 0.71875 -0.320312 C 0.605469 -0.394531 0.523438 -0.476562 0.476562 -0.574219 C 0.429688 -0.671875 0.414062 -0.765625 0.425781 -0.863281 C 0.433594 -0.960938 0.46875 -1.042969 0.53125 -1.117188 C 0.59375 -1.1875 0.671875 -1.234375 0.765625 -1.253906 C 0.863281 -1.277344 0.96875 -1.257812 1.082031 -1.203125 C 1.371094 -1.066406 1.636719 -0.972656 1.890625 -0.917969 C 2.140625 -0.863281 2.386719 -0.835938 2.628906 -0.835938 C 2.972656 -0.835938 3.226562 -0.894531 3.398438 -1.015625 C 3.566406 -1.132812 3.648438 -1.289062 3.648438 -1.480469 C 3.648438 -1.644531 3.59375 -1.773438 3.484375 -1.863281 C 3.371094 -1.953125 3.207031 -2.019531 2.984375 -2.058594 L 1.910156 -2.265625 C 1.464844 -2.351562 1.128906 -2.511719 0.894531 -2.753906 C 0.664062 -2.992188 0.546875 -3.300781 0.546875 -3.679688 C 0.546875 -4.023438 0.640625 -4.320312 0.832031 -4.570312 C 1.019531 -4.820312 1.285156 -5.015625 1.621094 -5.152344 C 1.957031 -5.289062 2.34375 -5.355469 2.78125 -5.355469 C 3.09375 -5.355469 3.390625 -5.320312 3.664062 -5.253906 C 3.941406 -5.183594 4.207031 -5.078125 4.464844 -4.9375 C 4.570312 -4.878906 4.644531 -4.804688 4.683594 -4.710938 C 4.722656 -4.617188 4.734375 -4.523438 4.710938 -4.425781 C 4.691406 -4.332031 4.648438 -4.246094 4.582031 -4.167969 C 4.519531 -4.09375 4.4375 -4.046875 4.339844 -4.03125 C 4.246094 -4.011719 4.136719 -4.03125 4.015625 -4.089844 C 3.792969 -4.203125 3.578125 -4.285156 3.375 -4.335938 C 3.171875 -4.386719 2.976562 -4.410156 2.789062 -4.410156 C 2.441406 -4.410156 2.179688 -4.351562 2.011719 -4.226562 C 1.84375 -4.105469 1.761719 -3.945312 1.761719 -3.746094 C 1.761719 -3.59375 1.808594 -3.46875 1.910156 -3.371094 C 2.011719 -3.269531 2.164062 -3.203125 2.371094 -3.164062 L 3.445312 -2.960938 C 3.910156 -2.875 4.261719 -2.71875 4.503906 -2.488281 C 4.742188 -2.261719 4.863281 -1.953125 4.863281 -1.566406 C 4.863281 -1.042969 4.65625 -0.636719 4.25 -0.339844 C 3.84375 -0.0429688 3.296875 0.105469 2.617188 0.105469 Z M 2.617188 0.105469 "/></g></g></g><g fill="#5271ff" fill-opacity="1"><g transform="translate(163.628347, 60.395642)"><g><path d="M 1.363281 0.0742188 C 1.148438 0.0742188 0.984375 0.0117188 0.871094 -0.117188 C 0.753906 -0.246094 0.699219 -0.425781 0.699219 -0.65625 L 0.699219 -4.59375 C 0.699219 -4.828125 0.753906 -5.011719 0.871094 -5.136719 C 0.984375 -5.261719 1.148438 -5.324219 1.363281 -5.324219 C 1.578125 -5.324219 1.742188 -5.261719 1.863281 -5.136719 C 1.980469 -5.011719 2.039062 -4.828125 2.039062 -4.59375 L 2.039062 -0.65625 C 2.039062 -0.425781 1.980469 -0.246094 1.867188 -0.117188 C 1.753906 0.0117188 1.585938 0.0742188 1.363281 0.0742188 Z M 1.363281 -6.320312 C 1.113281 -6.320312 0.917969 -6.382812 0.777344 -6.507812 C 0.636719 -6.632812 0.570312 -6.808594 0.570312 -7.03125 C 0.570312 -7.257812 0.636719 -7.433594 0.777344 -7.554688 C 0.917969 -7.675781 1.113281 -7.738281 1.363281 -7.738281 C 1.621094 -7.738281 1.816406 -7.675781 1.953125 -7.554688 C 2.089844 -7.433594 2.15625 -7.257812 2.15625 -7.03125 C 2.15625 -6.808594 2.089844 -6.632812 1.953125 -6.507812 C 1.816406 -6.382812 1.621094 -6.320312 1.363281 -6.320312 Z M 1.363281 -6.320312 "/></g></g></g><g fill="#5271ff" fill-opacity="1"><g transform="translate(168.350057, 60.395642)"><g><path d="M 1.382812 0.0859375 C 1.167969 0.0859375 1.003906 0.0273438 0.890625 -0.0898438 C 0.777344 -0.210938 0.71875 -0.378906 0.71875 -0.601562 L 0.71875 -4.65625 C 0.71875 -4.878906 0.777344 -5.046875 0.890625 -5.160156 C 1.003906 -5.277344 1.167969 -5.332031 1.375 -5.332031 C 1.582031 -5.332031 1.742188 -5.277344 1.855469 -5.160156 C 1.972656 -5.046875 2.027344 -4.878906 2.027344 -4.65625 L 2.027344 -3.875 L 1.910156 -4.195312 C 2.054688 -4.554688 2.273438 -4.835938 2.574219 -5.042969 C 2.875 -5.25 3.234375 -5.355469 3.648438 -5.355469 C 4.070312 -5.355469 4.417969 -5.253906 4.691406 -5.054688 C 4.960938 -4.855469 5.152344 -4.546875 5.257812 -4.132812 L 5.109375 -4.132812 C 5.25 -4.511719 5.488281 -4.808594 5.816406 -5.027344 C 6.144531 -5.246094 6.523438 -5.355469 6.953125 -5.355469 C 7.355469 -5.355469 7.6875 -5.277344 7.945312 -5.117188 C 8.207031 -4.960938 8.402344 -4.722656 8.53125 -4.40625 C 8.660156 -4.085938 8.726562 -3.683594 8.726562 -3.199219 L 8.726562 -0.601562 C 8.726562 -0.378906 8.664062 -0.210938 8.546875 -0.0898438 C 8.429688 0.0273438 8.261719 0.0859375 8.050781 0.0859375 C 7.835938 0.0859375 7.667969 0.0273438 7.554688 -0.0898438 C 7.441406 -0.210938 7.382812 -0.378906 7.382812 -0.601562 L 7.382812 -3.144531 C 7.382812 -3.546875 7.316406 -3.839844 7.183594 -4.023438 C 7.050781 -4.210938 6.828125 -4.304688 6.515625 -4.304688 C 6.164062 -4.304688 5.886719 -4.179688 5.6875 -3.933594 C 5.488281 -3.6875 5.386719 -3.34375 5.386719 -2.910156 L 5.386719 -0.601562 C 5.386719 -0.378906 5.332031 -0.210938 5.214844 -0.0898438 C 5.101562 0.0273438 4.9375 0.0859375 4.722656 0.0859375 C 4.507812 0.0859375 4.339844 0.0273438 4.222656 -0.0898438 C 4.105469 -0.210938 4.046875 -0.378906 4.046875 -0.601562 L 4.046875 -3.144531 C 4.046875 -3.546875 3.980469 -3.839844 3.847656 -4.023438 C 3.714844 -4.210938 3.496094 -4.304688 3.1875 -4.304688 C 2.835938 -4.304688 2.5625 -4.179688 2.359375 -3.933594 C 2.160156 -3.6875 2.058594 -3.34375 2.058594 -2.910156 L 2.058594 -0.601562 C 2.058594 -0.144531 1.835938 0.0859375 1.382812 0.0859375 Z M 1.382812 0.0859375 "/></g></g></g><g fill="#5271ff" fill-opacity="1"><g transform="translate(179.743277, 60.395642)"><g><path d="M 1.363281 2.019531 C 1.148438 2.019531 0.984375 1.960938 0.871094 1.847656 C 0.753906 1.730469 0.699219 1.5625 0.699219 1.339844 L 0.699219 -4.65625 C 0.699219 -4.878906 0.753906 -5.046875 0.871094 -5.160156 C 0.984375 -5.277344 1.144531 -5.332031 1.351562 -5.332031 C 1.566406 -5.332031 1.730469 -5.277344 1.847656 -5.160156 C 1.960938 -5.046875 2.019531 -4.878906 2.019531 -4.65625 L 2.019531 -3.820312 L 1.898438 -4.140625 C 2.007812 -4.507812 2.226562 -4.800781 2.558594 -5.023438 C 2.890625 -5.246094 3.28125 -5.355469 3.722656 -5.355469 C 4.183594 -5.355469 4.585938 -5.246094 4.929688 -5.023438 C 5.277344 -4.800781 5.546875 -4.488281 5.742188 -4.082031 C 5.933594 -3.679688 6.03125 -3.195312 6.03125 -2.628906 C 6.03125 -2.070312 5.933594 -1.585938 5.742188 -1.175781 C 5.546875 -0.765625 5.28125 -0.445312 4.9375 -0.226562 C 4.59375 -0.00390625 4.1875 0.105469 3.722656 0.105469 C 3.289062 0.105469 2.90625 0 2.574219 -0.21875 C 2.246094 -0.4375 2.023438 -0.722656 1.910156 -1.074219 L 2.039062 -1.074219 L 2.039062 1.339844 C 2.039062 1.5625 1.980469 1.730469 1.863281 1.847656 C 1.742188 1.960938 1.578125 2.019531 1.363281 2.019531 Z M 3.347656 -0.914062 C 3.613281 -0.914062 3.84375 -0.976562 4.046875 -1.105469 C 4.246094 -1.234375 4.402344 -1.425781 4.511719 -1.679688 C 4.625 -1.933594 4.679688 -2.25 4.679688 -2.628906 C 4.679688 -3.203125 4.558594 -3.628906 4.3125 -3.910156 C 4.070312 -4.195312 3.75 -4.335938 3.347656 -4.335938 C 3.082031 -4.335938 2.851562 -4.273438 2.652344 -4.148438 C 2.449219 -4.023438 2.292969 -3.832031 2.183594 -3.578125 C 2.074219 -3.324219 2.019531 -3.007812 2.019531 -2.628906 C 2.019531 -2.0625 2.140625 -1.636719 2.382812 -1.347656 C 2.625 -1.058594 2.949219 -0.914062 3.347656 -0.914062 Z M 3.347656 -0.914062 "/></g></g></g><g fill="#5271ff" fill-opacity="1"><g transform="translate(188.165426, 60.395642)"><g><path d="M 2.488281 0.105469 C 1.894531 0.105469 1.449219 -0.0625 1.148438 -0.402344 C 0.847656 -0.742188 0.699219 -1.242188 0.699219 -1.898438 L 0.699219 -6.976562 C 0.699219 -7.199219 0.753906 -7.367188 0.871094 -7.480469 C 0.984375 -7.59375 1.148438 -7.652344 1.363281 -7.652344 C 1.578125 -7.652344 1.742188 -7.59375 1.863281 -7.480469 C 1.980469 -7.367188 2.039062 -7.199219 2.039062 -6.976562 L 2.039062 -1.964844 C 2.039062 -1.636719 2.109375 -1.390625 2.25 -1.234375 C 2.386719 -1.078125 2.585938 -1 2.84375 -1 C 2.902344 -1 2.953125 -1 3.003906 -1.003906 C 3.054688 -1.007812 3.105469 -1.011719 3.15625 -1.019531 C 3.253906 -1.035156 3.324219 -1.007812 3.359375 -0.9375 C 3.394531 -0.871094 3.414062 -0.734375 3.414062 -0.527344 C 3.414062 -0.347656 3.378906 -0.207031 3.304688 -0.105469 C 3.234375 -0.0078125 3.117188 0.0546875 2.953125 0.0742188 C 2.878906 0.0820312 2.804688 0.0898438 2.726562 0.0976562 C 2.648438 0.105469 2.570312 0.105469 2.488281 0.105469 Z M 2.488281 0.105469 "/></g></g></g><g fill="#5271ff" fill-opacity="1"><g transform="translate(193.573593, 60.395642)"><g><path d="M 1.363281 0.0742188 C 1.148438 0.0742188 0.984375 0.0117188 0.871094 -0.117188 C 0.753906 -0.246094 0.699219 -0.425781 0.699219 -0.65625 L 0.699219 -4.59375 C 0.699219 -4.828125 0.753906 -5.011719 0.871094 -5.136719 C 0.984375 -5.261719 1.148438 -5.324219 1.363281 -5.324219 C 1.578125 -5.324219 1.742188 -5.261719 1.863281 -5.136719 C 1.980469 -5.011719 2.039062 -4.828125 2.039062 -4.59375 L 2.039062 -0.65625 C 2.039062 -0.425781 1.980469 -0.246094 1.867188 -0.117188 C 1.753906 0.0117188 1.585938 0.0742188 1.363281 0.0742188 Z M 1.363281 -6.320312 C 1.113281 -6.320312 0.917969 -6.382812 0.777344 -6.507812 C 0.636719 -6.632812 0.570312 -6.808594 0.570312 -7.03125 C 0.570312 -7.257812 0.636719 -7.433594 0.777344 -7.554688 C 0.917969 -7.675781 1.113281 -7.738281 1.363281 -7.738281 C 1.621094 -7.738281 1.816406 -7.675781 1.953125 -7.554688 C 2.089844 -7.433594 2.15625 -7.257812 2.15625 -7.03125 C 2.15625 -6.808594 2.089844 -6.632812 1.953125 -6.507812 C 1.816406 -6.382812 1.621094 -6.320312 1.363281 -6.320312 Z M 1.363281 -6.320312 "/></g></g></g><g fill="#5271ff" fill-opacity="1"><g transform="translate(198.295303, 60.395642)"><g><path d="M 1.726562 0.0859375 C 1.511719 0.0859375 1.347656 0.0273438 1.230469 -0.0898438 C 1.109375 -0.210938 1.050781 -0.378906 1.050781 -0.601562 L 1.050781 -4.238281 L 0.558594 -4.238281 C 0.386719 -4.238281 0.253906 -4.285156 0.160156 -4.375 C 0.0664062 -4.460938 0.0195312 -4.585938 0.0195312 -4.742188 C 0.0195312 -4.90625 0.0664062 -5.035156 0.160156 -5.117188 C 0.253906 -5.203125 0.386719 -5.246094 0.558594 -5.246094 L 1.4375 -5.246094 L 1.050781 -4.894531 L 1.050781 -5.257812 C 1.050781 -5.996094 1.238281 -6.546875 1.609375 -6.917969 C 1.980469 -7.285156 2.519531 -7.5 3.21875 -7.566406 L 3.585938 -7.597656 C 3.726562 -7.613281 3.84375 -7.589844 3.929688 -7.527344 C 4.015625 -7.46875 4.070312 -7.390625 4.097656 -7.292969 C 4.128906 -7.195312 4.132812 -7.097656 4.109375 -6.996094 C 4.089844 -6.898438 4.042969 -6.808594 3.976562 -6.734375 C 3.90625 -6.660156 3.820312 -6.617188 3.714844 -6.609375 L 3.5625 -6.601562 C 3.15625 -6.570312 2.859375 -6.46875 2.671875 -6.289062 C 2.484375 -6.109375 2.394531 -5.839844 2.394531 -5.472656 L 2.394531 -5.078125 L 2.222656 -5.246094 L 3.304688 -5.246094 C 3.476562 -5.246094 3.609375 -5.203125 3.703125 -5.117188 C 3.796875 -5.035156 3.84375 -4.90625 3.84375 -4.742188 C 3.84375 -4.585938 3.796875 -4.460938 3.703125 -4.375 C 3.609375 -4.285156 3.476562 -4.238281 3.304688 -4.238281 L 2.394531 -4.238281 L 2.394531 -0.601562 C 2.394531 -0.144531 2.171875 0.0859375 1.726562 0.0859375 Z M 1.726562 0.0859375 "/></g></g></g><g fill="#5271ff" fill-opacity="1"><g transform="translate(204.186138, 60.395642)"><g><path d="M 1.363281 0.0742188 C 1.148438 0.0742188 0.984375 0.0117188 0.871094 -0.117188 C 0.753906 -0.246094 0.699219 -0.425781 0.699219 -0.65625 L 0.699219 -4.59375 C 0.699219 -4.828125 0.753906 -5.011719 0.871094 -5.136719 C 0.984375 -5.261719 1.148438 -5.324219 1.363281 -5.324219 C 1.578125 -5.324219 1.742188 -5.261719 1.863281 -5.136719 C 1.980469 -5.011719 2.039062 -4.828125 2.039062 -4.59375 L 2.039062 -0.65625 C 2.039062 -0.425781 1.980469 -0.246094 1.867188 -0.117188 C 1.753906 0.0117188 1.585938 0.0742188 1.363281 0.0742188 Z M 1.363281 -6.320312 C 1.113281 -6.320312 0.917969 -6.382812 0.777344 -6.507812 C 0.636719 -6.632812 0.570312 -6.808594 0.570312 -7.03125 C 0.570312 -7.257812 0.636719 -7.433594 0.777344 -7.554688 C 0.917969 -7.675781 1.113281 -7.738281 1.363281 -7.738281 C 1.621094 -7.738281 1.816406 -7.675781 1.953125 -7.554688 C 2.089844 -7.433594 2.15625 -7.257812 2.15625 -7.03125 C 2.15625 -6.808594 2.089844 -6.632812 1.953125 -6.507812 C 1.816406 -6.382812 1.621094 -6.320312 1.363281 -6.320312 Z M 1.363281 -6.320312 "/></g></g></g><g fill="#5271ff" fill-opacity="1"><g transform="translate(208.907848, 60.395642)"><g><path d="M 3.121094 0.105469 C 2.570312 0.105469 2.09375 -0.00390625 1.683594 -0.230469 C 1.277344 -0.457031 0.960938 -0.777344 0.742188 -1.191406 C 0.519531 -1.605469 0.40625 -2.09375 0.40625 -2.652344 C 0.40625 -3.074219 0.46875 -3.449219 0.59375 -3.78125 C 0.722656 -4.117188 0.902344 -4.398438 1.136719 -4.628906 C 1.375 -4.863281 1.660156 -5.042969 1.996094 -5.167969 C 2.332031 -5.292969 2.707031 -5.355469 3.121094 -5.355469 C 3.359375 -5.355469 3.613281 -5.324219 3.890625 -5.257812 C 4.164062 -5.195312 4.425781 -5.085938 4.667969 -4.9375 C 4.78125 -4.863281 4.859375 -4.777344 4.894531 -4.679688 C 4.929688 -4.578125 4.9375 -4.476562 4.914062 -4.375 C 4.894531 -4.269531 4.847656 -4.179688 4.78125 -4.105469 C 4.714844 -4.03125 4.628906 -3.984375 4.527344 -3.964844 C 4.429688 -3.949219 4.316406 -3.972656 4.195312 -4.035156 C 4.039062 -4.128906 3.878906 -4.199219 3.714844 -4.246094 C 3.546875 -4.289062 3.390625 -4.3125 3.242188 -4.3125 C 3.003906 -4.3125 2.796875 -4.277344 2.617188 -4.203125 C 2.441406 -4.125 2.289062 -4.019531 2.164062 -3.878906 C 2.039062 -3.738281 1.941406 -3.566406 1.878906 -3.359375 C 1.8125 -3.152344 1.78125 -2.910156 1.78125 -2.640625 C 1.78125 -2.109375 1.910156 -1.695312 2.164062 -1.390625 C 2.417969 -1.085938 2.777344 -0.933594 3.242188 -0.933594 C 3.390625 -0.933594 3.546875 -0.957031 3.707031 -1 C 3.867188 -1.039062 4.03125 -1.109375 4.195312 -1.203125 C 4.316406 -1.265625 4.425781 -1.289062 4.523438 -1.265625 C 4.621094 -1.246094 4.699219 -1.195312 4.765625 -1.121094 C 4.828125 -1.046875 4.867188 -0.957031 4.882812 -0.851562 C 4.898438 -0.75 4.886719 -0.648438 4.84375 -0.546875 C 4.804688 -0.445312 4.734375 -0.363281 4.625 -0.300781 C 4.390625 -0.15625 4.140625 -0.0546875 3.875 0.0117188 C 3.609375 0.0742188 3.359375 0.105469 3.121094 0.105469 Z M 3.121094 0.105469 "/></g></g></g><g fill="#5271ff" fill-opacity="1"><g transform="translate(215.957083, 60.395642)"><g><path d="M 2.425781 0.105469 C 2.046875 0.105469 1.707031 0.0351562 1.410156 -0.113281 C 1.113281 -0.257812 0.882812 -0.457031 0.714844 -0.707031 C 0.546875 -0.957031 0.460938 -1.242188 0.460938 -1.554688 C 0.460938 -1.941406 0.5625 -2.25 0.761719 -2.472656 C 0.960938 -2.699219 1.289062 -2.863281 1.738281 -2.960938 C 2.1875 -3.0625 2.792969 -3.113281 3.550781 -3.113281 L 4.089844 -3.113281 L 4.089844 -2.339844 L 3.5625 -2.339844 C 3.121094 -2.339844 2.765625 -2.316406 2.5 -2.273438 C 2.234375 -2.230469 2.046875 -2.160156 1.9375 -2.054688 C 1.828125 -1.953125 1.769531 -1.804688 1.769531 -1.621094 C 1.769531 -1.382812 1.851562 -1.191406 2.019531 -1.039062 C 2.183594 -0.890625 2.410156 -0.816406 2.703125 -0.816406 C 2.941406 -0.816406 3.148438 -0.871094 3.332031 -0.980469 C 3.515625 -1.09375 3.660156 -1.246094 3.765625 -1.4375 C 3.875 -1.632812 3.929688 -1.851562 3.929688 -2.101562 L 3.929688 -3.335938 C 3.929688 -3.695312 3.847656 -3.953125 3.691406 -4.109375 C 3.535156 -4.269531 3.269531 -4.347656 2.898438 -4.347656 C 2.691406 -4.347656 2.464844 -4.320312 2.226562 -4.269531 C 1.988281 -4.222656 1.734375 -4.136719 1.46875 -4.015625 C 1.335938 -3.949219 1.214844 -3.929688 1.109375 -3.960938 C 1.007812 -3.988281 0.925781 -4.046875 0.871094 -4.136719 C 0.8125 -4.226562 0.785156 -4.324219 0.785156 -4.433594 C 0.785156 -4.539062 0.8125 -4.644531 0.871094 -4.75 C 0.925781 -4.851562 1.023438 -4.929688 1.160156 -4.980469 C 1.488281 -5.117188 1.804688 -5.210938 2.109375 -5.269531 C 2.414062 -5.328125 2.691406 -5.355469 2.941406 -5.355469 C 3.457031 -5.355469 3.878906 -5.277344 4.210938 -5.117188 C 4.546875 -4.960938 4.792969 -4.722656 4.957031 -4.40625 C 5.121094 -4.085938 5.203125 -3.675781 5.203125 -3.175781 L 5.203125 -0.601562 C 5.203125 -0.378906 5.152344 -0.210938 5.042969 -0.0898438 C 4.9375 0.0273438 4.78125 0.0859375 4.582031 0.0859375 C 4.382812 0.0859375 4.226562 0.0273438 4.117188 -0.0898438 C 4.003906 -0.210938 3.949219 -0.378906 3.949219 -0.601562 L 3.949219 -1.117188 L 4.035156 -1.117188 C 3.984375 -0.867188 3.886719 -0.648438 3.738281 -0.46875 C 3.59375 -0.285156 3.410156 -0.144531 3.1875 -0.0429688 C 2.964844 0.0585938 2.710938 0.105469 2.425781 0.105469 Z M 2.425781 0.105469 "/></g></g></g><g fill="#5271ff" fill-opacity="1"><g transform="translate(223.810754, 60.395642)"><g><path d="M 2.714844 0.105469 C 2.257812 0.105469 1.855469 -0.00390625 1.507812 -0.226562 C 1.160156 -0.445312 0.890625 -0.765625 0.699219 -1.175781 C 0.503906 -1.585938 0.40625 -2.070312 0.40625 -2.628906 C 0.40625 -3.195312 0.503906 -3.679688 0.699219 -4.082031 C 0.890625 -4.488281 1.160156 -4.800781 1.507812 -5.023438 C 1.855469 -5.246094 2.257812 -5.355469 2.714844 -5.355469 C 3.152344 -5.355469 3.53125 -5.246094 3.859375 -5.035156 C 4.183594 -4.820312 4.402344 -4.535156 4.519531 -4.183594 L 4.398438 -4.183594 L 4.398438 -6.976562 C 4.398438 -7.199219 4.457031 -7.367188 4.570312 -7.480469 C 4.6875 -7.59375 4.851562 -7.652344 5.066406 -7.652344 C 5.28125 -7.652344 5.445312 -7.59375 5.566406 -7.480469 C 5.683594 -7.367188 5.742188 -7.199219 5.742188 -6.976562 L 5.742188 -0.601562 C 5.742188 -0.378906 5.683594 -0.210938 5.570312 -0.0898438 C 5.457031 0.0273438 5.289062 0.0859375 5.078125 0.0859375 C 4.863281 0.0859375 4.695312 0.0273438 4.582031 -0.0898438 C 4.46875 -0.210938 4.410156 -0.378906 4.410156 -0.601562 L 4.410156 -1.4375 L 4.527344 -1.117188 C 4.421875 -0.742188 4.203125 -0.445312 3.875 -0.226562 C 3.546875 -0.00390625 3.160156 0.105469 2.714844 0.105469 Z M 3.089844 -0.914062 C 3.355469 -0.914062 3.589844 -0.976562 3.789062 -1.105469 C 3.988281 -1.234375 4.144531 -1.425781 4.253906 -1.679688 C 4.367188 -1.933594 4.421875 -2.25 4.421875 -2.628906 C 4.421875 -3.203125 4.300781 -3.628906 4.058594 -3.910156 C 3.8125 -4.195312 3.492188 -4.335938 3.089844 -4.335938 C 2.824219 -4.335938 2.59375 -4.273438 2.394531 -4.148438 C 2.191406 -4.023438 2.039062 -3.832031 1.925781 -3.578125 C 1.816406 -3.324219 1.761719 -3.007812 1.761719 -2.628906 C 1.761719 -2.0625 1.882812 -1.636719 2.125 -1.347656 C 2.367188 -1.058594 2.691406 -0.914062 3.089844 -0.914062 Z M 3.089844 -0.914062 "/></g></g></g><g fill="#5271ff" fill-opacity="1"><g transform="translate(232.232903, 60.395642)"><g><path d="M 2.425781 0.105469 C 2.046875 0.105469 1.707031 0.0351562 1.410156 -0.113281 C 1.113281 -0.257812 0.882812 -0.457031 0.714844 -0.707031 C 0.546875 -0.957031 0.460938 -1.242188 0.460938 -1.554688 C 0.460938 -1.941406 0.5625 -2.25 0.761719 -2.472656 C 0.960938 -2.699219 1.289062 -2.863281 1.738281 -2.960938 C 2.1875 -3.0625 2.792969 -3.113281 3.550781 -3.113281 L 4.089844 -3.113281 L 4.089844 -2.339844 L 3.5625 -2.339844 C 3.121094 -2.339844 2.765625 -2.316406 2.5 -2.273438 C 2.234375 -2.230469 2.046875 -2.160156 1.9375 -2.054688 C 1.828125 -1.953125 1.769531 -1.804688 1.769531 -1.621094 C 1.769531 -1.382812 1.851562 -1.191406 2.019531 -1.039062 C 2.183594 -0.890625 2.410156 -0.816406 2.703125 -0.816406 C 2.941406 -0.816406 3.148438 -0.871094 3.332031 -0.980469 C 3.515625 -1.09375 3.660156 -1.246094 3.765625 -1.4375 C 3.875 -1.632812 3.929688 -1.851562 3.929688 -2.101562 L 3.929688 -3.335938 C 3.929688 -3.695312 3.847656 -3.953125 3.691406 -4.109375 C 3.535156 -4.269531 3.269531 -4.347656 2.898438 -4.347656 C 2.691406 -4.347656 2.464844 -4.320312 2.226562 -4.269531 C 1.988281 -4.222656 1.734375 -4.136719 1.46875 -4.015625 C 1.335938 -3.949219 1.214844 -3.929688 1.109375 -3.960938 C 1.007812 -3.988281 0.925781 -4.046875 0.871094 -4.136719 C 0.8125 -4.226562 0.785156 -4.324219 0.785156 -4.433594 C 0.785156 -4.539062 0.8125 -4.644531 0.871094 -4.75 C 0.925781 -4.851562 1.023438 -4.929688 1.160156 -4.980469 C 1.488281 -5.117188 1.804688 -5.210938 2.109375 -5.269531 C 2.414062 -5.328125 2.691406 -5.355469 2.941406 -5.355469 C 3.457031 -5.355469 3.878906 -5.277344 4.210938 -5.117188 C 4.546875 -4.960938 4.792969 -4.722656 4.957031 -4.40625 C 5.121094 -4.085938 5.203125 -3.675781 5.203125 -3.175781 L 5.203125 -0.601562 C 5.203125 -0.378906 5.152344 -0.210938 5.042969 -0.0898438 C 4.9375 0.0273438 4.78125 0.0859375 4.582031 0.0859375 C 4.382812 0.0859375 4.226562 0.0273438 4.117188 -0.0898438 C 4.003906 -0.210938 3.949219 -0.378906 3.949219 -0.601562 L 3.949219 -1.117188 L 4.035156 -1.117188 C 3.984375 -0.867188 3.886719 -0.648438 3.738281 -0.46875 C 3.59375 -0.285156 3.410156 -0.144531 3.1875 -0.0429688 C 2.964844 0.0585938 2.710938 0.105469 2.425781 0.105469 Z M 2.425781 0.105469 "/></g></g></g><g fill="#5271ff" fill-opacity="1"><g transform="translate(240.086574, 60.395642)"><g><path d="M 1.339844 0.0546875 C 1.097656 0.0546875 0.902344 -0.0195312 0.757812 -0.171875 C 0.609375 -0.320312 0.535156 -0.515625 0.535156 -0.75 C 0.535156 -0.980469 0.609375 -1.167969 0.757812 -1.316406 C 0.902344 -1.460938 1.097656 -1.535156 1.339844 -1.535156 C 1.59375 -1.535156 1.785156 -1.460938 1.925781 -1.316406 C 2.066406 -1.167969 2.136719 -0.980469 2.136719 -0.75 C 2.136719 -0.515625 2.066406 -0.320312 1.925781 -0.171875 C 1.785156 -0.0195312 1.59375 0.0546875 1.339844 0.0546875 Z M 1.339844 0.0546875 "/></g></g></g></svg>