<svg xmlns="http://www.w3.org/2000/svg" viewBox="0 0 512 512">
  <defs>
    <linearGradient id="gradient" x1="0%" y1="0%" x2="100%" y2="100%">
      <stop offset="0%" style="stop-color:#8B5CF6"/>
      <stop offset="100%" style="stop-color:#EC4899"/>
    </linearGradient>
  </defs>

  <!-- Background circle -->
  <circle cx="256" cy="256" r="256" fill="url(#gradient)"/>

  <!-- Dollar sign / Payment icon -->
  <g fill="white">
    <!-- Main circle background -->
    <circle cx="256" cy="256" r="160" fill="rgba(255,255,255,0.15)"/>

    <!-- Dollar sign -->
    <path d="M256 128c-8.8 0-16 7.2-16 16v16.1c-35.3 6.2-64 32.9-64 72.9c0 44.2 35.8 60 72 72c32 10.7 48 21.3 48 40c0 22.1-17.9 40-40 40c-26.5 0-48-21.5-48-48c0-8.8-7.2-16-16-16s-16 7.2-16 16c0 39.5 28.7 72.3 64 79v17c0 8.8 7.2 16 16 16s16-7.2 16-16v-17c35.3-6.2 64-32.9 64-79c0-44.2-35.8-60-72-72c-32-10.7-48-21.3-48-40c0-22.1 17.9-40 40-40c26.5 0 48 21.5 48 48c0 8.8 7.2 16 16 16s16-7.2 16-16c0-39.5-28.7-72.3-64-72.9V144c0-8.8-7.2-16-16-16z"/>
  </g>
</svg>
